<svg aria-hidden="true" style="position:absolute;width:0;height:0;overflow:hidden" xmlns="http://www.w3.org/2000/svg"><defs><symbol id="logout-icon" viewBox="0 0 32 32"><path d="M20 28H4V4h16v2h4V0H0v32h24v-6h-4v2z"/><path d="m24.586 8.586-2.828 2.828L24.344 14H14v4h10.344l-2.586 2.586 2.828 2.828L32 16l-7.414-7.414z"/></symbol><symbol id="icon-logo" viewBox="0 0 93 32"><path fill="#fb7c2f" style="fill:var(--color1, #fb7c2f)" d="M14.452 5.161H32a8.258 8.258 0 0 1 8.258 8.258v10.323A8.258 8.258 0 0 1 32 32H14.452a8.258 8.258 0 0 1-8.258-8.258V13.419a8.258 8.258 0 0 1 8.258-8.258z"/><path fill="#fb7c2f" style="fill:var(--color1, #fb7c2f)" opacity=".2" d="M8.258 0h17.548a8.258 8.258 0 0 1 8.258 8.258v10.323a8.258 8.258 0 0 1-8.258 8.258H8.258A8.258 8.258 0 0 1 0 18.581V8.258A8.258 8.258 0 0 1 8.258 0z"/><path d="m23.88 21.234 1.327-1.456 2.857 4.995h3.834l-4.534-7.483 4.534-5.935h-3.999l-2.894 4.211-1.124 1.705v-5.916h-3.235v13.418h3.235v-3.539zm15.049 2.644c.086.393.184.691.295.894h3.106v-.157c-.27-.485-.412-1.186-.424-2.101V18.1c-.018-1.081-.396-1.932-1.134-2.553s-1.742-.931-3.013-.931c-1.272 0-2.319.301-3.142.903-.817.602-1.226 1.385-1.226 2.35h3.106c0-.725.369-1.087 1.106-1.087.792 0 1.189.458 1.189 1.373v.525h-.958c-1.524 0-2.685.276-3.483.829s-1.198 1.37-1.198 2.451c0 .86.329 1.576.986 2.147.657.565 1.456.848 2.396.848 1.026 0 1.825-.359 2.396-1.078zm-.692-1.382c-.252.166-.571.249-.958.249-.295 0-.538-.086-.728-.258a.906.906 0 0 1-.286-.691c0-.971.541-1.456 1.622-1.456h.903v1.594c-.111.209-.295.396-.553.562zm14.653-2.635c0 1.548-.35 2.786-1.051 3.714-.694.922-1.634 1.382-2.82 1.382-.915 0-1.668-.335-2.258-1.005v4.654h-3.106V14.801h2.903l.092.922c.596-.737 1.379-1.106 2.35-1.106 1.229 0 2.184.455 2.866 1.364.682.903 1.023 2.147 1.023 3.732v.148zm-3.106-.194c0-1.769-.516-2.654-1.548-2.654-.737 0-1.229.264-1.474.793v3.926c.27.553.768.829 1.493.829.989 0 1.499-.854 1.53-2.562v-.332zm8.792 5.29c1.118 0 2.006-.421 2.663-1.263l.092 1.078h2.912v-9.971h-3.124v6.994c-.301.51-.808.765-1.521.765-.829 0-1.244-.427-1.244-1.281v-6.478h-3.106v6.46c0 1.192.28 2.107.839 2.746.565.633 1.395.949 2.488.949zm12.597-2.986c0-.264-.138-.476-.415-.636s-.802-.326-1.576-.498-1.413-.396-1.917-.673c-.504-.283-.888-.624-1.152-1.023s-.396-.857-.396-1.373c0-.915.378-1.668 1.134-2.258.635-.5 1.434-.791 2.397-.871v-2.265h1.48v2.294c.901.109 1.655.39 2.26.841.799.596 1.198 1.379 1.198 2.35h-3.115c0-.799-.421-1.198-1.262-1.198-.326 0-.599.092-.82.276a.829.829 0 0 0-.332.673c0 .276.135.501.405.673s.7.313 1.29.424a11.32 11.32 0 0 1 1.567.396c1.499.516 2.249 1.441 2.249 2.774 0 .909-.405 1.65-1.216 2.221-.605.43-1.346.698-2.223.804v2.274h-1.48v-2.245a5.134 5.134 0 0 1-1.715-.437c-.67-.307-1.192-.725-1.567-1.253s-.562-1.084-.562-1.668h2.903c.012.461.166.799.461 1.014.295.209.673.313 1.133.313.424 0 .74-.086.949-.258a.821.821 0 0 0 .323-.673zm9.105-7.17v-2.479h-3.106v2.479H75.9v2.156h1.272v4.949c0 1.026.255 1.791.765 2.295s1.299.756 2.368.756c.608 0 1.192-.089 1.751-.267v-2.221a4.546 4.546 0 0 1-.774.055c-.399 0-.667-.074-.802-.221s-.203-.409-.203-.783v-4.562h1.64v-2.156h-1.64zm9.52 9.971c-.111-.203-.209-.501-.295-.894-.571.719-1.37 1.078-2.396 1.078-.94 0-1.739-.283-2.396-.848-.657-.571-.986-1.287-.986-2.147 0-1.081.399-1.898 1.198-2.451s1.96-.829 3.483-.829h.958v-.525c0-.915-.396-1.373-1.189-1.373-.737 0-1.106.363-1.106 1.087h-3.106c0-.965.408-1.748 1.226-2.35.823-.602 1.871-.903 3.142-.903s2.276.31 3.013.931c.737.62 1.115 1.471 1.133 2.553v4.414c.012.915.154 1.616.424 2.101v.157h-3.106zm-1.945-2.027c.387 0 .706-.083.958-.249.258-.166.442-.353.553-.562V20.34h-.903c-1.081 0-1.622.485-1.622 1.456a.9.9 0 0 0 .286.691c.19.172.433.258.728.258z"/></symbol><symbol id="google-icon" viewBox="0 0 32 32"><path fill="#2196f3" style="fill:var(--color2, #2196f3)" d="M30.567 13.038c.136 0 .246.115.246.258V16c0 1.012-.09 2.002-.262 2.962C29.22 26.419 22.953 32.054 15.44 32 7.01 31.939.264 24.8.282 15.964.301 7.144 7.128 0 15.547 0c4.125 0 7.867 1.715 10.615 4.501a.267.267 0 0 1 .004.369l-3.65 3.826a.237.237 0 0 1-.342.005c-1.725-1.721-4.058-2.777-6.627-2.777-5.305 0-9.577 4.446-9.614 10.007-.036 5.597 4.282 10.146 9.614 10.146 4.326 0 7.985-2.995 9.191-7.115h-8.945a.252.252 0 0 1-.246-.258v-5.408c0-.142.11-.258.246-.258h14.774z"/><path fill="#1e88e5" style="fill:var(--color3, #1e88e5)" d="M30.567 13.038h-1.843c.136 0 .246.115.246.258V16c0 1.012-.09 2.002-.262 2.962-1.27 7.114-7.033 12.57-14.083 13.009.27.017.541.026.815.028 7.513.054 13.78-5.581 15.111-13.038.172-.96.262-1.95.262-2.962v-2.704a.252.252 0 0 0-.246-.258z"/><path fill="#f44336" style="fill:var(--color4, #f44336)" d="M6.815 11.78 2.179 8.269C4.78 3.338 9.792 0 15.547 0c4.125 0 7.867 1.715 10.615 4.501a.267.267 0 0 1 .004.369l-3.65 3.826a.237.237 0 0 1-.342.005c-1.724-1.721-4.058-2.777-6.627-2.777-3.872 0-7.209 2.399-8.732 5.857z"/><path fill="#e53935" style="fill:var(--color5, #e53935)" d="m5.477 10.767 1.338 1.014c1.39-3.156 4.292-5.429 7.732-5.802l.077-.009a9.336 9.336 0 0 0-.92-.046c-3.498 0-6.546 1.933-8.228 4.843zM24.319 4.501a.267.267 0 0 1 .004.369l-2.962 3.105c.284.226.555.468.813.726a.237.237 0 0 0 .342-.005l3.65-3.826a.267.267 0 0 0-.004-.369C23.414 1.715 19.672 0 15.547 0c-.31 0-.617.011-.922.03 3.759.235 7.152 1.894 9.694 4.471z"/><path fill="#4caf50" style="fill:var(--color6, #4caf50)" d="M26.745 26.874C23.957 30.027 19.972 32 15.547 32c-5.976 0-11.151-3.6-13.656-8.844l4.733-3.4c1.42 3.704 4.881 6.32 8.923 6.32 2.537 0 4.844-1.03 6.562-2.713l4.636 3.51z"/><path fill="#43a047" style="fill:var(--color7, #43a047)" d="m6.624 19.756-1.396 1.003c1.621 3.165 4.809 5.318 8.476 5.318a9.3 9.3 0 0 0 .919-.046c-3.64-.364-6.689-2.855-8-6.274zM15.547 32c4.425 0 8.41-1.973 11.198-5.126l-1.135-.86c-2.618 3.414-6.544 5.679-10.982 5.957.304.019.611.029.919.029z"/><path fill="#ffc107" style="fill:var(--color8, #ffc107)" d="M5.934 16c0 1.328.245 2.595.69 3.756l-4.733 3.4A16.55 16.55 0 0 1 .282 16c0-2.804.688-5.439 1.897-7.731l4.636 3.511A10.437 10.437 0 0 0 5.934 16z"/><path fill="#ffb300" style="fill:var(--color9, #ffb300)" d="m5.228 20.759 1.396-1.003A10.48 10.48 0 0 1 5.934 16c0-1.507.316-2.937.881-4.22l-1.338-1.014a10.437 10.437 0 0 0-1.386 5.164 10.437 10.437 0 0 0 1.137 4.829z"/></symbol><symbol id="arrow-next-icon" viewBox="0 0 19 32"><path fill="none" stroke="#ff751d" style="stroke:var(--color1, #ff751d)" stroke-width="5.333" d="M2.667 2.667 13.334 16 2.667 29.333"/></symbol><symbol id="arrow-prev-icon" viewBox="0 0 19 32"><path fill="none" stroke="#ff751d" style="stroke:var(--color10, #ff751d)" stroke-width="5.333" d="M16 2.667 5.333 16 16 29.333"/></symbol><symbol id="arrow-to-main-icon" viewBox="0 0 32 32"><path fill="#FF751D" style="fill:var(--color1, #FF751D)" d="M28 14.667H9.107L13.88 9.88 12 8l-8 8 8 8 1.88-1.88-4.773-4.787H28v-2.667z"/></symbol><symbol id="calculator-icon" viewBox="0 0 32 32"><path fill="#52555f" style="fill:var(--color11, #52555f)" d="M27.25 0H4.75a2.816 2.816 0 0 0-2.813 2.813v26.375A2.815 2.815 0 0 0 4.75 32h22.5a2.816 2.816 0 0 0 2.813-2.812V2.813A2.816 2.816 0 0 0 27.25 0zm.938 29.188a.938.938 0 0 1-.938.937H4.75a.938.938 0 0 1-.938-.937V2.813a.94.94 0 0 1 .938-.938h22.5a.94.94 0 0 1 .938.938v26.375z"/><path fill="#52555f" style="fill:var(--color11, #52555f)" d="M25.375 3.75H6.625a.938.938 0 0 0-.938.938v7.625c0 .518.42.938.938.938h18.75c.518 0 .937-.42.937-.938V4.688a.938.938 0 0 0-.937-.938zm-.938 7.625H7.562v-5.75h16.875v5.75zM10.375 15.125h-3.75a.938.938 0 0 0-.938.938v3.75c0 .518.42.938.938.938h3.75c.518 0 .938-.42.938-.938v-3.75a.938.938 0 0 0-.938-.938zm-.937 3.75H7.563V17h1.875v1.875zM10.375 22.625h-3.75a.938.938 0 0 0-.938.938v3.75c0 .518.42.937.938.937h3.75c.518 0 .938-.42.938-.937v-3.75a.938.938 0 0 0-.938-.938zm-.937 3.75H7.563V24.5h1.875v1.875zM17.875 15.125h-3.75a.938.938 0 0 0-.938.938v3.75c0 .518.42.938.938.938h3.75c.518 0 .937-.42.937-.938v-3.75a.938.938 0 0 0-.937-.938zm-.938 3.75h-1.875V17h1.875v1.875zM17.875 22.625h-3.75a.938.938 0 0 0-.938.938v3.75c0 .518.42.937.938.937h3.75c.518 0 .937-.42.937-.937v-3.75a.938.938 0 0 0-.937-.938zm-.938 3.75h-1.875V24.5h1.875v1.875zM25.375 15.125h-3.75a.937.937 0 0 0-.937.938v11.25c0 .518.42.937.937.937h3.75c.518 0 .937-.42.937-.937v-11.25a.938.938 0 0 0-.937-.938zm-.938 11.25h-1.875V17h1.875v9.375z"/></symbol><symbol id="calendar-icon" viewBox="0 0 32 32"><path fill="#52555f" style="fill:var(--color11, #52555f)" d="M27.961 3.307h-2.099v-.514a.938.938 0 1 0-1.874 0v.514h-2.587v-.514a.938.938 0 0 0-1.875 0v.514h-2.587v-.514a.938.938 0 1 0-1.875 0v.514h-2.587v-.514a.938.938 0 0 0-1.876 0v.514H8.014v-.514a.938.938 0 0 0-1.876 0v.514H4.039A4.044 4.044 0 0 0 0 7.346v18.758a4.044 4.044 0 0 0 4.039 4.039H27.96a4.044 4.044 0 0 0 4.039-4.039V7.346a4.044 4.044 0 0 0-4.039-4.039zm2.164 22.798a2.167 2.167 0 0 1-2.164 2.164H4.04a2.167 2.167 0 0 1-2.164-2.164V10.772h28.25v15.333zm0-17.208H1.875v-1.55c0-1.193.971-2.164 2.164-2.164h2.099v.362a.938.938 0 0 0 1.876 0v-.362h2.587v.362a.938.938 0 0 0 1.876 0v-.362h2.587v.362a.938.938 0 0 0 1.875 0v-.362h2.587v.362a.938.938 0 1 0 1.875 0v-.362h2.587v.362a.938.938 0 1 0 1.874 0v-.362h2.099c1.193 0 2.164.971 2.164 2.164v1.55z"/><path fill="#52555f" style="fill:var(--color11, #52555f)" d="M10.451 12.771H6.752a.938.938 0 0 0-.938.938v3.828c0 .518.42.937.938.937h3.699c.518 0 .938-.42.938-.937v-3.828a.938.938 0 0 0-.938-.938zm-.938 3.827H7.689v-1.952h1.824v1.952zM17.85 12.771h-3.699a.938.938 0 0 0-.938.938v3.828c0 .518.42.937.938.937h3.699c.518 0 .937-.42.937-.937v-3.828a.938.938 0 0 0-.937-.938zm-.938 3.827h-1.824v-1.952h1.824v1.952zM25.248 12.771h-3.699a.937.937 0 0 0-.937.938v3.828c0 .518.42.937.937.937h3.699c.518 0 .937-.42.937-.937v-3.828a.938.938 0 0 0-.937-.938zm-.937 3.827h-1.824v-1.952h1.824v1.952zM10.451 20.041H6.752a.938.938 0 0 0-.938.938v3.827c0 .518.42.938.938.938h3.699c.518 0 .938-.42.938-.938v-3.827a.938.938 0 0 0-.938-.938zm-.938 3.827H7.689v-1.952h1.824v1.952zM17.85 20.041h-3.699a.938.938 0 0 0-.938.938v3.827c0 .518.42.938.938.938h3.699c.518 0 .937-.42.937-.938v-3.827a.938.938 0 0 0-.937-.938zm-.938 3.827h-1.824v-1.952h1.824v1.952zM25.248 20.041h-3.699a.937.937 0 0 0-.937.938v3.827c0 .518.42.938.937.938h3.699c.518 0 .937-.42.937-.938v-3.827a.938.938 0 0 0-.937-.938zm-.937 3.827h-1.824v-1.952h1.824v1.952z"/></symbol><symbol id="close-icon" viewBox="0 0 32 32"><path fill="none" stroke="#52555f" style="stroke:var(--color11, #52555f)" stroke-width="4.571" d="m2.286 2.286 27.429 27.429M2.286 29.714 29.715 2.285"/></symbol><symbol id="delete-icon" viewBox="0 0 32 32"><path fill="#52555f" style="fill:var(--color11, #52555f)" d="m28.992 7.153-.707-2.118a1.97 1.97 0 0 0-1.871-1.349h-5.938V1.753C20.476.787 19.69 0 18.724 0h-5.438c-.966 0-1.752.786-1.752 1.753v1.933H5.596c-.85 0-1.603.542-1.872 1.349l-.707 2.118A1.588 1.588 0 0 0 4.521 9.24h.739l1.625 20.1A2.908 2.908 0 0 0 9.767 32h12.804a2.909 2.909 0 0 0 2.882-2.66l1.625-20.1h.409c.508 0 .989-.246 1.286-.658s.379-.947.218-1.429zM13.41 1.875h5.191v1.811H13.41V1.875zm10.175 27.314a1.023 1.023 0 0 1-1.013.936H9.768c-.525 0-.97-.411-1.013-.936L7.141 9.24h18.056l-1.613 19.949zM4.924 7.365l.579-1.737a.098.098 0 0 1 .093-.067h20.818c.042 0 .079.027.093.067l.579 1.737H4.924z"/><path fill="#52555f" style="fill:var(--color11, #52555f)" d="M20.595 29.122a.937.937 0 0 0 .985-.888l.88-16.9a.938.938 0 0 0-1.872-.098l-.88 16.9a.937.937 0 0 0 .887.985zM10.473 28.237c.027.5.441.886.935.886l.052-.001a.937.937 0 0 0 .885-.987l-.922-16.9a.937.937 0 1 0-1.872.102l.922 16.9zM16.016 29.123c.518 0 .938-.42.938-.937v-16.9a.938.938 0 0 0-1.876 0v16.9c0 .518.42.937.938.937z"/></symbol><symbol id="report-icon" viewBox="0 0 32 32"><path fill="#52555f" style="fill:var(--color11, #52555f)" d="M6.667 12.267h4v13.067h-4V12.267zm7.466-5.6h3.733v18.667h-3.733V6.667zM21.6 17.333h3.733v8H21.6v-8z"/></symbol><symbol id="alcohol-icon" viewBox="0 0 32 32"><path d="M8.742 2.7c-.228 0-.413.213-.413.475v.201c0 .262.185.475.413.475s.413-.213.413-.475v-.201c0-.262-.185-.475-.413-.475zM7.542 4.281h-.175c-.228 0-.413.213-.413.475s.185.475.413.475h.175c.228 0 .413-.213.413-.475s-.185-.475-.413-.475zM8.185 3.444l-.123-.142c-.161-.185-.422-.185-.584 0s-.161.486 0 .671l.123.142c.081.093.186.139.292.139s.211-.046.292-.139a.526.526 0 0 0 0-.671zM8.185 5.396a.377.377 0 0 0-.584 0l-.123.142a.526.526 0 0 0 0 .671c.081.093.186.139.292.139s.211-.046.292-.139l.123-.142a.526.526 0 0 0 0-.671z"/><path d="M26.749 3.916h-13.94c-.157-1.016-.598-1.946-1.264-2.655C10.78.447 9.784-.001 8.742-.001c-2.279 0-4.133 2.133-4.133 4.756s1.854 4.756 4.133 4.756c.418 0 .83-.073 1.226-.215a5.05 5.05 0 0 0 2.262 1.44c.562.168.989.702 1.088 1.36l.524 3.496c.185 1.235.783 2.306 1.682 3.015.682.538 1.089 1.414 1.089 2.345v7.125c-.315.229-.516.633-.516 1.078v.041c-1.031.242-1.88.466-2.525.664a8.88 8.88 0 0 0-1.013.364c-.226.102-.646.293-.646.736 0 .595.672.696 1.212.778.464.07 1.106.128 1.91.174 1.357.076 2.733.089 2.746.089h.006c.014 0 1.389-.013 2.746-.089a21.626 21.626 0 0 0 1.91-.174c.54-.082 1.212-.183 1.212-.778 0-.47-.377-.713-1.754-1.129a45.714 45.714 0 0 0-2.62-.68 1.367 1.367 0 0 0-.326-.899v-7.3c0-.931.407-1.807 1.089-2.345.899-.709 1.496-1.78 1.682-3.015l.524-3.496c.099-.658.526-1.192 1.088-1.36 1.885-.564 3.302-2.274 3.751-4.381l.005-.024a6.85 6.85 0 0 0 .146-1.406v-.443c0-.312-.221-.566-.492-.566zM8.742 8.562c-1.824 0-3.308-1.707-3.308-3.806S6.918.95 8.742.95c.834 0 1.631.359 2.243 1.01.497.528.837 1.21.983 1.957h-.423c-.327-1.448-1.473-2.494-2.803-2.494-1.598 0-2.897 1.496-2.897 3.334s1.3 3.334 2.897 3.334c.119 0 .238-.009.357-.026.079.149.164.293.254.433a2.915 2.915 0 0 1-.611.065zm1.263-5.26a.377.377 0 0 0-.584 0l-.123.142a.526.526 0 0 0-.104.472H8.82c-.271 0-.492.254-.492.566v.443c0 .482.051.952.146 1.405l.005.026c.057.267.129.529.216.782-1.122-.028-2.027-1.086-2.027-2.383 0-1.315.93-2.385 2.072-2.385.877 0 1.642.635 1.939 1.545h-.634a.528.528 0 0 0-.042-.614zm9.054 26.766c1.451.336 2.361.59 2.931.774-1.042.118-2.715.195-4.204.208-1.49-.013-3.162-.09-4.204-.208.545-.176 1.402-.416 2.744-.731.371-.087.628-.487.598-.93l-.001-.026c0-.147.086-.276.21-.315.18-.056.306-.244.306-.459v-7.43c0-.625-.137-1.231-.388-1.771a10.139 10.139 0 0 0 1.468 0 4.202 4.202 0 0 0-.388 1.771v7.526c0 .163.073.314.192.401a.34.34 0 0 1 .133.276l-.001.021c-.024.424.235.807.602.892zm7.357-25.142c0 .285-.021.566-.061.841H13.933c-.228 0-.413.213-.413.475s.185.475.413.475h12.198c-.493 1.499-1.591 2.68-2.999 3.102-.875.262-1.54 1.093-1.693 2.117l-.524 3.496c-.147.98-.621 1.83-1.335 2.393a6.011 6.011 0 0 1-.499.322c-.326.148-2.261.148-2.59 0a5.759 5.759 0 0 1-.5-.322c-.714-.563-1.188-1.413-1.335-2.393l-.524-3.496c-.154-1.024-.818-1.855-1.693-2.117a4.282 4.282 0 0 1-2.08-1.416 5.225 5.225 0 0 1-.918-1.686h2.574c.228 0 .413-.213.413-.475s-.185-.475-.413-.475H9.217a5.821 5.821 0 0 1-.061-.841v-.06h17.262v.06z"/></symbol><symbol id="communal-icon" viewBox="0 0 32 32"><path d="M30.679 0H1.321C.87 0 .502.369.502.819s.369.819.819.819h1.768V31.16c0 .3.164.58.43.724s.587.13.84-.041l3.557-2.369 3.571 2.376a.816.816 0 0 0 .908 0l3.557-2.369 3.571 2.376a.816.816 0 0 0 .908 0l3.557-2.369 3.571 2.376a.831.831 0 0 0 .451.137c.13 0 .266-.034.389-.096a.822.822 0 0 0 .43-.724l-.014-29.522h1.864c.451 0 .819-.369.819-.819S31.129 0 30.679 0zm-3.482 29.631-2.751-1.83a.816.816 0 0 0-.908 0l-3.557 2.376-3.571-2.376a.816.816 0 0 0-.908 0l-3.557 2.369-3.571-2.369a.816.816 0 0 0-.908 0l-2.738 1.823V1.632H27.19l.007 27.999z"/><path d="M8.497 13.081h8.582c.451 0 .819-.369.819-.819s-.369-.819-.819-.819H8.497c-.451 0-.819.369-.819.819s.362.819.819.819zM8.497 15.928h6.431c.451 0 .819-.369.819-.819s-.369-.819-.819-.819H8.497c-.451 0-.819.369-.819.819s.362.819.819.819zM21.366 13.081h2.144c.451 0 .819-.369.819-.819s-.369-.819-.819-.819h-2.144c-.451 0-.819.369-.819.819s.362.819.819.819zM21.366 15.928h2.144c.451 0 .819-.369.819-.819s-.369-.819-.819-.819h-2.144c-.451 0-.819.369-.819.819s.362.819.819.819zM8.497 6.507h8.582c.451 0 .819-.369.819-.819s-.369-.819-.819-.819H8.497c-.451 0-.819.369-.819.819s.362.819.819.819zM8.497 9.347h6.431c.451 0 .819-.369.819-.819s-.369-.819-.819-.819H8.497c-.451 0-.819.369-.819.819s.362.819.819.819zM21.366 6.507h2.144c.451 0 .819-.369.819-.819s-.369-.819-.819-.819h-2.144c-.451 0-.819.369-.819.819s.362.819.819.819zM21.366 9.347h2.144c.451 0 .819-.369.819-.819s-.369-.819-.819-.819h-2.144c-.451 0-.819.369-.819.819s.362.819.819.819zM8.497 19.738h8.582c.451 0 .819-.369.819-.819s-.369-.819-.819-.819H8.497c-.451 0-.819.369-.819.819s.362.819.819.819zM8.497 22.578h6.431c.451 0 .819-.369.819-.819s-.369-.819-.819-.819H8.497c-.451 0-.819.369-.819.819s.362.819.819.819zM21.366 19.738h2.144c.451 0 .819-.369.819-.819s-.369-.819-.819-.819h-2.144c-.451 0-.819.369-.819.819s.362.819.819.819zM21.366 22.578h2.144c.451 0 .819-.369.819-.819s-.369-.819-.819-.819h-2.144c-.451 0-.819.369-.819.819s.362.819.819.819z"/></symbol><symbol id="education-icon" viewBox="0 0 32 32"><path d="M31.38 6.431h-2.109v-.72a.62.62 0 0 0-.447-.62 17.485 17.485 0 0 0-4.472-.571c-2.481 0-5.862.558-8.361 3.101C13.51 5.053 10.105 4.52 7.63 4.52a17.44 17.44 0 0 0-4.472.571.62.62 0 0 0-.447.62v.713H.621a.62.62 0 0 0-.62.62v19.812a.62.62 0 0 0 .924.539c.062-.031 6.265-3.424 14.924-1.241h.149a.619.619 0 0 0 .149 0c8.684-2.202 14.887 1.185 14.924 1.241a.619.619 0 0 0 .93-.533V7.05a.62.62 0 0 0-.62-.62zM1.241 25.871V7.672h1.482v15.556a.62.62 0 0 0 .713.62c1.283-.196 2.579-.3 3.877-.31a16.092 16.092 0 0 1 5.297.8A22.805 22.805 0 0 0 1.24 25.87zm6.072-3.567a27.381 27.381 0 0 0-3.374.217V6.202a17.11 17.11 0 0 1 3.678-.409c2.32 0 5.52.533 7.741 3.039l.019 15.451c-1.29-.844-3.809-1.979-8.064-1.979zm9.304-13.472c2.221-2.481 5.421-3.039 7.741-3.039 1.237.004 2.47.141 3.678.409v16.319a27.293 27.293 0 0 0-3.356-.223c-4.23 0-6.755 1.135-8.064 1.979V8.832zm14.136 17.039a22.807 22.807 0 0 0-11.394-1.532 16.134 16.134 0 0 1 5.322-.8 27.12 27.12 0 0 1 3.902.304.62.62 0 0 0 .713-.62V7.673h1.482l-.025 18.199z"/></symbol><symbol id="entertainment-icon" viewBox="0 0 32 32"><path d="m29.881 15.729-1.25-1.263V2.452l1.05-1.061c.206-.208.206-.545 0-.753s-.54-.208-.745 0l-1.05 1.061H15.995L14.745.436c-.206-.208-.54-.208-.745 0s-.206.545 0 .753l1.196 1.209-3.71 15.884a1.524 1.524 0 0 0-.265 1.382 1.5 1.5 0 0 0 1.137 1.047l2.366.485c.449.092.83.378 1.047.786s.242.887.07 1.315a1.53 1.53 0 0 1-1.74.934l-8.864-1.897a2.722 2.722 0 0 0-3.131 1.781c-.261.754-.185 1.584.209 2.277s1.066 1.177 1.843 1.329l.037.007c.699.136 1.292.578 1.627 1.211s.371 1.377.095 2.04a.535.535 0 0 0 .486.739.526.526 0 0 0 .486-.327c.398-.96.348-2.037-.138-2.955s-1.346-1.557-2.357-1.754l-.037-.007c-.476-.093-.887-.389-1.128-.814s-.288-.933-.128-1.395a1.666 1.666 0 0 1 1.917-1.09l8.864 1.897a2.58 2.58 0 0 0 2.935-1.576c.29-.723.247-1.532-.118-2.219s-1.009-1.171-1.766-1.326l-2.366-.485a.436.436 0 0 1-.337-.311.45.45 0 0 1 .035-.347l15.674-3.737 1.196 1.209a.523.523 0 0 0 .746 0 .536.536 0 0 0 0-.753zM26.832 2.764l-4.891 4.942-4.891-4.942h9.783zm-10.76.52 5.123 5.175-8.287 8.373 3.164-13.548zm-2.419 14.301 8.287-8.373 5.123 5.175-13.41 3.197zm13.924-4.184-4.891-4.942 4.891-4.942V13.4z"/></symbol><symbol id="health-icon" viewBox="0 0 32 32"><path d="m30.119 17.829-.508-8.305c-.033-.538-.251-1.029-.615-1.382s-.828-.527-1.308-.487c-.944.077-1.676.968-1.666 2.027l.06 6.771-2.619 3.756c-.418.6-1.112.84-1.741.66l2.849-4.144c.5-.727.417-1.781-.189-2.399-.324-.33-.742-.493-1.179-.459s-.831.261-1.11.638l-4.304 5.806c-.71.958-1.095 2.17-1.084 3.415l.067 7.71c.003.307.226.555.5.555l7.167.011h.001c.14 0 .274-.066.369-.181s.142-.271.13-.428l-.293-3.774 4.758-7.082a4.389 4.389 0 0 0 .717-2.706zm-1.516 2.032-4.873 7.254a.616.616 0 0 0-.099.386l.262 3.378-6.125-.009-.062-7.155a4.458 4.458 0 0 1 .853-2.687l4.304-5.806a.544.544 0 0 1 .845-.066.718.718 0 0 1 .07.885l-3.233 4.703c-.085.123-.12.28-.097.434s.102.29.217.375c1.157.86 2.733.573 3.587-.653l2.726-3.911c.07-.1.107-.224.106-.351l-.062-6.967c-.004-.469.32-.863.738-.898.214-.017.418.059.579.216s.258.374.272.612l.508 8.305c.043.7-.141 1.395-.518 1.955zM9.785 14.504c-.28-.377-.674-.604-1.11-.638s-.855.129-1.179.459c-.606.618-.689 1.672-.189 2.399l2.849 4.144c-.629.18-1.323-.06-1.741-.66l-2.619-3.756.06-6.771c.009-1.06-.723-1.95-1.666-2.027-.479-.039-.945.134-1.308.487s-.582.844-.615 1.382l-.508 8.305c-.059.969.195 1.93.717 2.706l4.758 7.082-.293 3.774c-.012.157.035.312.13.428s.229.181.369.181h.001l7.167-.011c.274 0 .497-.248.5-.555l.067-7.71c.011-1.244-.374-2.457-1.084-3.415l-4.304-5.806zm4.325 16.364-6.125.009.262-3.378a.605.605 0 0 0-.099-.386l-4.873-7.254a3.17 3.17 0 0 1-.518-1.955l.509-8.305a.928.928 0 0 1 .272-.612.742.742 0 0 1 .52-.218l.059.002c.418.034.742.428.738.898l-.062 6.967a.606.606 0 0 0 .106.351l2.726 3.911c.855 1.226 2.43 1.513 3.588.653.116-.086.194-.222.217-.375s-.012-.311-.097-.434L8.1 16.039a.718.718 0 0 1 .07-.885c.119-.122.274-.182.435-.169s.307.096.41.235l4.304 5.806a4.46 4.46 0 0 1 .853 2.687l-.062 7.155zM25.747 6.31c0-1.685-.586-3.27-1.65-4.462S21.618 0 20.113 0s-2.92.656-3.984 1.848l-.19.213-.19-.213C14.685.656 13.27 0 11.765 0s-2.92.656-3.984 1.848c-2.197 2.46-2.197 6.464 0 8.924l7.804 8.741c.098.109.226.164.354.164s.256-.055.354-.164l7.804-8.741c1.064-1.192 1.65-2.776 1.65-4.462zm-9.808 12.013-7.45-8.344c-1.806-2.023-1.806-5.315 0-7.338.875-.98 2.038-1.52 3.276-1.52s2.401.54 3.276 1.52l.544.61c.094.105.221.164.354.164s.26-.059.354-.164l.544-.61c.875-.98 2.038-1.52 3.276-1.52s2.401.54 3.276 1.52 1.357 2.283 1.357 3.669-.482 2.689-1.357 3.669l-7.45 8.344z"/></symbol><symbol id="housing-icon" viewBox="0 0 32 32"><path d="M30.414 11.952h-.636V9.589a2.535 2.535 0 0 0-2.533-2.533h-9.181c-.851 0-1.605.422-2.064 1.068a2.53 2.53 0 0 0-2.064-1.068H8.168a.469.469 0 0 0 0 .938h5.768c.88 0 1.596.716 1.596 1.596v4.688l-.03-.028a3.067 3.067 0 0 0-2.069-.817H5.625a1.607 1.607 0 0 0-1.062-1.393 1.56 1.56 0 0 0-.52-.088H3.16V9.589c0-.88.716-1.596 1.596-1.596h1.538a.469.469 0 0 0 0-.938H4.756a2.535 2.535 0 0 0-2.533 2.533v2.363h-.636c-.875 0-1.586.712-1.586 1.586v4.894a3.307 3.307 0 0 0 3.303 3.303h.236l-.514 1.382c-.324.871.343 1.828 1.27 1.828h.754c.422 0 .826-.201 1.081-.538l2.021-2.671h15.699l2.021 2.672c.255.337.659.538 1.081.538h.754c.929 0 1.594-.957 1.27-1.828l-.514-1.382h.236a3.307 3.307 0 0 0 3.303-3.303v-4.894c0-.874-.711-1.586-1.586-1.586zM16.469 9.589c0-.88.716-1.596 1.596-1.596h9.181c.88 0 1.596.716 1.596 1.596v2.363h-.883c-.623 0-1.221.4-1.463.974a1.585 1.585 0 0 0-.12.507h-7.808c-.772 0-1.541.311-2.099.844V9.589zM5.628 14.37h7.805c1.157 0 2.099.942 2.099 2.099v.667H5.629V14.37zm-.246 9.471a.42.42 0 0 1-.333.166h-.754a.421.421 0 0 1-.392-.563l.635-1.708h2.437l-1.593 2.106zm22.323.165h-.754a.419.419 0 0 1-.333-.166l-1.593-2.106h2.437l.635 1.708c.1.27-.106.563-.392.563zm.992-3.209H3.302a2.368 2.368 0 0 1-2.365-2.365v-4.894c0-.358.291-.648.648-.648h2.456c.358 0 .648.291.648.648v4.067c0 .259.21.469.469.469h17.217a.469.469 0 0 0 0-.938h-5.907v-.667c0-1.157.942-2.099 2.099-2.099h7.805v2.766h-2.121a.469.469 0 0 0 0 .938h2.59c.259 0 .469-.21.469-.469v-4.067c0-.358.291-.648.648-.648h2.456c.358 0 .648.291.648.648v4.894a2.368 2.368 0 0 1-2.365 2.365z"/></symbol><symbol id="other-icon" viewBox="0 0 32 32"><path d="M31.996 22.334c-.956-7.667-8.11-8.803-10.129-8.971V6.4c0-.048-.067-4.8-5.867-4.8s-5.867 4.752-5.867 4.8v6.963C8.114 13.531.962 14.666.004 22.334L0 22.4v2.133c0 .295.239.533.533.533H3.2v1.067H1.6a.533.533 0 0 0-.533.533c0 1.291.78 3.733 3.733 3.733s3.733-2.442 3.733-3.733A.533.533 0 0 0 8 26.133H6.4v-1.067h8v1.067h-1.6a.533.533 0 0 0-.533.533c0 1.291.78 3.733 3.733 3.733s3.733-2.442 3.733-3.733a.533.533 0 0 0-.533-.533h-1.6v-1.067h8v1.067H24a.533.533 0 0 0-.533.533c0 1.291.78 3.733 3.733 3.733s3.733-2.442 3.733-3.733a.533.533 0 0 0-.533-.533h-1.6v-1.067h2.667a.533.533 0 0 0 .533-.533V22.4c0-.012 0-.053-.004-.066zM11.2 6.4c0-.153.053-3.733 4.8-3.733 4.714 0 4.8 3.583 4.8 3.733v6.933h-1.067v-3.2h-1.067v3.2h-7.467V6.4zm-5.013 9.034a12.37 12.37 0 0 1 4.48-1.035h10.667a12.37 12.37 0 0 1 4.48 1.035 8.3 8.3 0 0 1 5.033 6.432H1.154a8.301 8.301 0 0 1 5.033-6.432zM4.8 29.333A2.447 2.447 0 0 1 2.189 27.2h5.219A2.459 2.459 0 0 1 4.8 29.333zm.533-3.2H4.266v-1.067h1.067v1.067zM16 29.333a2.446 2.446 0 0 1-2.611-2.133h5.219A2.459 2.459 0 0 1 16 29.333zm.533-3.2h-1.067v-1.067h1.067v1.067zm10.667 3.2a2.446 2.446 0 0 1-2.613-2.133h5.221a2.459 2.459 0 0 1-2.608 2.133zm.533-3.2h-1.067v-1.067h1.067v1.067zm3.2-2.133H1.066v-1.067h29.867V24z"/><path d="M16 15.467a2.667 2.667 0 1 0 0 5.334 2.667 2.667 0 0 0 0-5.334zm0 4.266a1.6 1.6 0 1 1 0-3.2 1.6 1.6 0 0 1 0 3.2z"/><path d="M17.067 18.133a1.067 1.067 0 1 1-2.135 0 1.067 1.067 0 0 1 2.135 0zM18.667 8h1.067v1.067h-1.067V8zM18.667 6.4v.533h1.067V6.4c0-.273-.107-2.667-3.733-2.667V4.8c2.475 0 2.667 1.227 2.667 1.6zM11.2 17.6h1.067v1.067H11.2V17.6zM9.067 17.6h1.067v1.067H9.067V17.6zM19.733 17.6H20.8v1.067h-1.067V17.6zM21.867 17.6h1.067v1.067h-1.067V17.6z"/></symbol><symbol id="products-icon" viewBox="0 0 32 32"><path d="m31.564 25.028-.12-.728c-.077-.465-.44-.803-.863-.803a.773.773 0 0 0-.159.016l-2.452.505 1.111-.831c.291-.218.438-.608.375-.994a1.077 1.077 0 0 0-.099-.303l-.336-.666a.907.907 0 0 0-.538-.467.784.784 0 0 0-.34-.024c.124-.764.187-1.545.187-2.34 0-.353-.189-.656-.46-.791a4.414 4.414 0 0 0 .028-3.006c-.028-.08-.07-.152-.125-.213s-.117-.107-.189-.14a3.19 3.19 0 0 0-1.48-.276c-.064-1.446-1.133-2.6-2.437-2.6-.172 0-.339.02-.501.059a4.749 4.749 0 0 0-.216-2.28.651.651 0 0 0-.128-.22.562.562 0 0 0-.192-.142 3.441 3.441 0 0 0-3.437.353 5.252 5.252 0 0 0-1.089-1.952c-.148-.167-.346-.258-.556-.258s-.407.092-.556.258l-2.24 2.514a2.19 2.19 0 0 0-1.552-.662c-.134 0-.27.013-.403.039a2.284 2.284 0 0 0-1.267.746 2.13 2.13 0 0 0-1.725-.138V7.747c0-1.334-.957-2.422-2.142-2.444V4.204c.363-.07.639-.424.639-.85V.864c0-.476-.346-.863-.771-.863H3.769c-.425 0-.771.387-.771.863v2.49c0 .426.277.78.639.85v1.099c-1.184.023-2.142 1.11-2.142 2.444v15.121a5.218 5.218 0 0 0-1.498 3.679c0 2.835 2.222 5.142 4.953 5.142l18.515-.006c.632 0 1.226-.311 1.63-.853a2.563 2.563 0 0 0 .465-1.889l3.698.744a.812.812 0 0 0 .667-.167c.192-.154.323-.392.357-.653l.1-.753a1.093 1.093 0 0 0-.005-.323c-.064-.385-.325-.69-.667-.778l-1.303-.335 2.45-.504c.231-.047.431-.193.564-.409s.182-.476.14-.734zm-5.288-10.031c.278 0 .552.049.816.147a3.248 3.248 0 0 1-.221 2.382h-1.246l.398-.446c.18-.203.18-.531-.001-.733s-.474-.202-.654.001l-.21.236a2.487 2.487 0 0 0-.497-.956 2.42 2.42 0 0 1 1.617-.631zm-2.609-2.596c.835 0 1.515.763 1.515 1.702l-.001.052a3.455 3.455 0 0 0-1.32.877 2.084 2.084 0 0 0-.186-.07c-.135-.819-.628-1.475-1.279-1.781.27-.469.739-.78 1.272-.78zm-2.445-2.886c.314 0 .623.057.92.17.239.796.19 1.652-.114 2.393-.25.256-.454.568-.593.92a2.058 2.058 0 0 0-.247.031c-.363.071-.7.247-.983.502a2.734 2.734 0 0 0-.35-.544l1.061-1.191c.18-.203.18-.531-.001-.733s-.474-.202-.654.001l-1.159 1.302a2.226 2.226 0 0 0-.71-.236 3.377 3.377 0 0 1 .79-1.666c.545-.612 1.269-.949 2.039-.949zm-3.545 8.011h-.401c-.068-.192-.235-.329-.43-.329s-.363.136-.43.329h-.472a.565.565 0 0 0-.067-.637.428.428 0 0 0-.654.001l-.436.489a.523.523 0 0 0-.091.147h-.941a4.436 4.436 0 0 1-.593-2.091h7.339a4.447 4.447 0 0 1-.593 2.091h-.98a.523.523 0 0 0-.091-.147l-.436-.489a.429.429 0 0 0-.654-.001.564.564 0 0 0-.067.637zm-1.075-3.127c.174-.724.764-1.258 1.462-1.258s1.288.534 1.462 1.258h-2.925zm.945-6.371a4.28 4.28 0 0 1 .874 1.83 4.315 4.315 0 0 0-.587.943.425.425 0 0 0-.241-.076h-.616c-.255 0-.463.232-.463.518s.207.518.463.518h.541c-.03.143-.054.288-.071.434a2.257 2.257 0 0 0-.523.229c-.308-.596-.819-1.04-1.424-1.218l-.001-.004a2.87 2.87 0 0 0-.186-.664l2.235-2.509zm-8.362 4.675a1.663 1.663 0 0 1-.061-.26c-.133-.857.383-1.675 1.149-1.825a1.301 1.301 0 0 1 1.086.291c.102.085.231.12.356.095s.236-.105.306-.224c.217-.367.549-.61.936-.686.081-.016.163-.024.245-.024.685 0 1.268.549 1.385 1.306.013.087.02.177.02.269 0 .268.184.492.422.515.517.051.957.415 1.162.929a2.895 2.895 0 0 0-.535 1.308h-2.638c-.328 0-.609.227-.727.548a3.243 3.243 0 0 0-1.981-.681c-.449 0-.889.095-1.308.281-.071.032-.135.079-.189.139s-.097.134-.125.213a4.43 4.43 0 0 0-.216.921 1.641 1.641 0 0 1-.328-.769c-.109-.703.22-1.403.799-1.702.218-.113.322-.392.242-.645zm1.379 4.681.126.142H9.579a3.271 3.271 0 0 1-.085-2.078 2.33 2.33 0 0 1 .816-.147c.697 0 1.353.305 1.846.859a2.7 2.7 0 0 1 .184.231c.078.397.199.777.354 1.135h-.697l-.778-.874c-.181-.203-.473-.203-.654-.001s-.181.53-.001.733zm-1.97.142H6.945a1.72 1.72 0 0 1 .717-1.182c.221.332.511.601.844.783.024.134.053.268.088.399zM3.926 1.036h3.453V3.18H3.926V1.036zm2.814 3.18V5.3H4.565V4.216H6.74zM2.424 9.847h3.004c.256 0 .463-.232.463-.518s-.207-.518-.463-.518H2.424V7.746c0-.777.563-1.409 1.254-1.409h3.949c.692 0 1.255.632 1.255 1.409v1.065h-.864c-.256 0-.463.232-.463.518s.207.518.463.518h.864v.46c-.53.582-.805 1.435-.669 2.313l.001.005c-.742.57-1.138 1.584-.98 2.602.009.059.021.118.033.176a2.524 2.524 0 0 0-.617.543H2.424V9.847zm0 7.135h3.689a3.022 3.022 0 0 0-.101.544h-.078c-.426 0-.772.388-.772.866 0 .823.068 1.63.201 2.42a4.54 4.54 0 0 0-.408-.018c-.559 0-1.092.099-1.501.28-.624.276-.797.668-.835.94a5.594 5.594 0 0 0-.196.116v-5.147zm5.857 6.365c.167.149.268.276.327.368h-.017c-.262 0-.732-.118-1.267-.45a3.346 3.346 0 0 1-.531-.404.425.425 0 0 0-.598 0c-.148.141-.331.28-.53.403-.535.332-1.005.45-1.267.45h-.017c.059-.092.161-.218.327-.368.146-.131.207-.346.156-.547s-.205-.348-.391-.372c-.451-.059-.737-.188-.87-.282.167-.117.591-.316 1.353-.316.631 0 1.092.149 1.313.288a.422.422 0 0 0 .453 0c.221-.139.683-.288 1.313-.288.762 0 1.185.199 1.353.316-.134.094-.419.222-.871.282-.185.024-.339.171-.391.372s.01.417.156.547zm-.925 6.305.016.096c.055.333.171.638.333.904H4.953c-2.221 0-4.028-1.842-4.028-4.106 0-1.547.844-2.897 2.087-3.597.143.119.321.222.532.305-.084.16-.142.332-.156.512a.912.912 0 0 0 .184.639c.181.229.459.345.825.345.489 0 1.13-.217 1.715-.58a4.34 4.34 0 0 0 .381-.264c.119.092.247.18.381.264.585.363 1.227.579 1.715.58.367 0 .644-.116.825-.345a.912.912 0 0 0 .184-.639 1.326 1.326 0 0 0-.156-.512c.211-.083.389-.186.532-.305a4.11 4.11 0 0 1 1.982 2.666l-3.272 1.392c-.958.408-1.518 1.52-1.332 2.645zm17.032.513a1.149 1.149 0 0 1-.921.481h-.486l-.303-1.834c-.047-.281-.288-.467-.539-.415s-.417.322-.371.604l.272 1.646-1.592.001-.205-1.24c-.047-.281-.288-.467-.539-.415s-.417.322-.371.604l.174 1.052-3.702.002-.279-1.685c-.047-.281-.288-.467-.539-.415s-.417.322-.371.604l.247 1.496-5.406.002c-.578 0-1.073-.459-1.178-1.093l-.016-.096c-.105-.632.211-1.258.751-1.488l1.818-.774.135.819c.041.249.236.424.454.424a.417.417 0 0 0 .085-.009c.251-.052.417-.322.371-.604l-.166-1.004 2.699-1.148c.239-.102.359-.401.268-.668s-.358-.402-.597-.3l-1.256.534a5.135 5.135 0 0 0-2.457-3.233c-.038-.271-.21-.663-.835-.94-.408-.181-.941-.28-1.501-.28a4.24 4.24 0 0 0-1.077.134v-.313c0-.286-.207-.518-.463-.518a.433.433 0 0 0-.286.111 13.55 13.55 0 0 1-.121-1.646h15.067c.256 0 .463-.232.463-.518s-.207-.518-.463-.518h-.189a5.632 5.632 0 0 0 .461-2.246c0-.457-.312-.834-.71-.876a1.176 1.176 0 0 1 .844-.374c.597 0 1.105.479 1.207 1.138.012.076.018.155.018.234 0 .268.183.492.422.515.553.054 1.005.52 1.1 1.132.025.163.022.323-.003.477h-.496c-.256 0-.463.232-.463.518s.207.518.463.518h3.595c-.012.95-.121 1.879-.325 2.779l-2.507 1.657a2.331 2.331 0 0 0-1.001-1.412 1.923 1.923 0 0 0-1.795-.148l-5.163 2.197c-.239.102-.359.401-.268.668s.358.402.597.3l.68-.289.211 1.277c.041.25.236.424.454.424a.417.417 0 0 0 .085-.009c.251-.052.417-.322.371-.604l-.242-1.462 3.604-1.533c.334-.142.704-.112 1.015.084s.526.53.591.921l.936 5.659c.064.39-.029.789-.257 1.094zm1.651-4.056c-.216.044-.374.252-.379.498s.145.461.359.516l3.444.885-.086.646-3.993-.804-.624-3.774 3.478-2.299.29.575-2.933 2.196c-.182.137-.254.398-.172.626s.296.359.512.315l4.608-.948.103.62-4.606.948z"/></symbol><symbol id="sports-icon" viewBox="0 0 32 32"><path d="M31.02 13.515h-1.907c-.354 0-.665.182-.847.456-1.458-.152-1.652-.386-1.81-.576a2.973 2.973 0 0 0-.756-.653l-4.383-2.662c-.893-2.073-2.386-3.369-3.493-4.096a1.528 1.528 0 0 1-.689-1.282c0-.307.09-.603.261-.857l1.09-1.622c.217-.323.292-.711.211-1.092s-.307-.705-.636-.912a1.425 1.425 0 0 0-.759-.218h-5.178c-.269 0-.531.076-.759.218-.33.207-.556.531-.636.912s-.006.769.211 1.092l1.09 1.622c.171.254.261.551.261.857 0 .52-.258.999-.689 1.282-1.642 1.077-5.311 4.25-3.924 10.452.774 3.459 1.371 5.897 1.731 7.07H1.68a1.36 1.36 0 0 0-1.325 1.077l-.264 1.268c-.084.401.017.812.275 1.13s.641.5 1.05.5H28.01a1.351 1.351 0 0 0 1.325-1.63l-.264-1.268a1.36 1.36 0 0 0-1.325-1.077h-7.729c.107-.351.237-.818.387-1.396h.509a14.91 14.91 0 0 0 4.399-.663l2.913-.367c.174.311.506.522.888.522h1.907c.56 0 1.016-.456 1.016-1.016v-6.054c0-.56-.456-1.017-1.016-1.017zM11.646 1.325a.488.488 0 0 1 .478-.388h5.178a.489.489 0 0 1 .405.762l-.539.803h-4.911l-.539-.803a.485.485 0 0 1-.072-.374zm.47 5.442a2.461 2.461 0 0 0 1.113-2.066c0-.447-.121-.88-.348-1.262h3.664a2.463 2.463 0 0 0-.347 1.262c0 .837.416 1.609 1.113 2.066.287.188.603.419.926.696h-7.043c.328-.282.645-.513.923-.696zm16.038 18.007.264 1.268c.035.168-.038.29-.084.347s-.151.154-.323.154H1.417c-.172 0-.276-.096-.323-.154s-.12-.179-.084-.347l.264-1.268a.417.417 0 0 1 .407-.331h26.066c.196 0 .367.139.407.331zm-9.121-1.268h-8.64c-.193-.575-.683-2.285-1.8-7.275-.471-2.104-.358-4.009.332-5.676h1.727a.469.469 0 0 0 0-.938H9.39c.265-.456.559-.86.864-1.216h8.919c.306.357.6.761.863 1.216h-7.508a.469.469 0 0 0 0 .938h6.212a1.493 1.493 0 0 0-.067.925c.096.39.338.72.681.927l.806.489h-5.21a1.51 1.51 0 0 0-1.419 2.069h-.481c-.412 0-.796.163-1.082.46s-.435.686-.42 1.098a1.5 1.5 0 0 0 1.036 1.371 1.505 1.505 0 0 0 1.358 2.147h.71a1.502 1.502 0 0 0 1.392 2.069h3.388a23.492 23.492 0 0 1-.402 1.395zm6.121-2.984a.449.449 0 0 0-.081.017c-1.348.42-2.748.633-4.16.633h-4.866a.567.567 0 0 1 0-1.132h3.072a.469.469 0 0 0 0-.938h-5.176a.567.567 0 0 1 0-1.132h5.176a.469.469 0 0 0 0-.938h-6.043c-.315 0-.58-.244-.59-.545a.568.568 0 0 1 .565-.587h6.068a.469.469 0 0 0 0-.938h-4.193a.562.562 0 0 1-.565-.587.585.585 0 0 1 .59-.545h6.461c.266 0 .494-.172.566-.429s-.033-.522-.261-.66l-1.876-1.139a.563.563 0 0 1-.191-.777.566.566 0 0 1 .777-.191l4.786 2.907c.198.12.372.271.52.45.383.463.875.741 2.363.904v5.255l-2.942.371zm5.945.064a.08.08 0 0 1-.079.079h-1.907a.08.08 0 0 1-.079-.079v-6.055a.08.08 0 0 1 .079-.079h1.907a.08.08 0 0 1 .079.079v6.055zM22.477 30.488l-2.441-1.964a.469.469 0 0 0-.588.731l2.248 1.808H7.731l2.253-1.812a.469.469 0 0 0-.588-.731L6.95 30.488c-.285.229-.39.6-.269.945s.436.568.802.568h14.461c.366 0 .68-.223.802-.568s.016-.716-.269-.945z"/></symbol><symbol id="technique-icon" viewBox="0 0 32 32"><path d="M21.709 9.697a.625.625 0 1 0 0 1.25.625.625 0 0 0 0-1.25zM10.353 21.052a.625.625 0 1 0 0 1.25.625.625 0 0 0 0-1.25z"/><path d="M31.254 3.845a.626.626 0 0 0-.585.168l-2.591 2.612h-1.242l-1.367-1.417v-1.26l2.554-2.592a.626.626 0 0 0-.245-1.031 6.245 6.245 0 0 0-1.996-.326 6.18 6.18 0 0 0-5.074 2.604 6.175 6.175 0 0 0-.964 5.265l-4.604 4.604-7.67-7.688V3.275a.626.626 0 0 0-.303-.536L2.748.087a.623.623 0 0 0-.763.094L.217 1.948a.626.626 0 0 0-.094.764l2.651 4.419a.625.625 0 0 0 .536.303h1.508l7.671 7.688-4.586 4.586a6.18 6.18 0 0 0-5.267.966 6.179 6.179 0 0 0-2.603 5.073c0 .683.11 1.354.326 1.996a.625.625 0 0 0 1.036.241l2.591-2.611h1.249l1.423 1.423v1.249l-2.611 2.591a.627.627 0 0 0 .241 1.036 6.24 6.24 0 0 0 1.996.326 6.18 6.18 0 0 0 5.073-2.603 6.18 6.18 0 0 0 .966-5.267l3.683-3.683.844.916-.387.387a.625.625 0 0 0 .884.884l.351-.351 7.916 8.599a3.75 3.75 0 1 0 5.322-5.284l-.02-.019-8.613-7.901.347-.347a.625.625 0 0 0-.884-.884l-.384.385-.918-.843 3.701-3.701a6.257 6.257 0 0 0 7.543-8.034.625.625 0 0 0-.451-.409zM5.518 6.371a.62.62 0 0 0-.442-.177H3.662L1.444 2.49l1.077-1.077 3.697 2.219v1.414c0 .166.066.324.183.441l7.854 7.871-.884.884-7.853-7.87zm15.898 12.191 8.642 7.928a2.5 2.5 0 0 1-3.536 3.536l-7.942-8.627 2.837-2.836zm-.922-.846-2.762 2.762-.844-.916 2.688-2.688.918.843zm5.286-6.466a4.986 4.986 0 0 1-1.597-.261.628.628 0 0 0-.641.15L11.171 23.51a.625.625 0 0 0-.15.642 4.948 4.948 0 0 1-.682 4.515 4.941 4.941 0 0 1-4.057 2.082c-.183 0-.365-.01-.545-.029l1.985-1.97a.626.626 0 0 0 .185-.444v-1.768a.625.625 0 0 0-.183-.442l-1.789-1.789a.625.625 0 0 0-.442-.183H3.725a.628.628 0 0 0-.444.185l-1.97 1.985a4.936 4.936 0 0 1-.029-.545c0-1.628.759-3.107 2.082-4.057a4.948 4.948 0 0 1 4.515-.682.624.624 0 0 0 .641-.15L20.891 8.489a.624.624 0 0 0 .15-.641 4.945 4.945 0 0 1 .681-4.514 4.943 4.943 0 0 1 4.059-2.083c.188 0 .376.01.561.031l-1.944 1.973a.625.625 0 0 0-.18.438v1.768c0 .162.063.318.175.434l1.727 1.789c.118.122.28.191.45.191h1.768a.625.625 0 0 0 .444-.185l1.97-1.985a5.006 5.006 0 0 1-4.971 5.545z"/><path d="m19.499 11.647-7.821 7.821a.625.625 0 0 0 .884.884l7.821-7.821a.625.625 0 0 0-.884-.884zM27.397 28.25a.625.625 0 0 0 .882-.886l-5.634-5.616a.625.625 0 0 0-.883.885l5.634 5.616z"/></symbol><symbol id="transport-icon" viewBox="0 0 32 32"><path d="m28.949 12.82-.614-.738-2.156-6.598c-.367-1.115-1.307-1.853-2.355-1.86H8.422c-1.048 0-1.988.745-2.355 1.86L3.941 12l-.885.93c-.771.745-1.217 1.839-1.217 2.988v9.614c.006 1.573 1.132 2.844 2.518 2.844h1.59c1.385 0 2.512-1.272 2.518-2.844v-1.395h14.939v1.395c.006 1.573 1.132 2.844 2.518 2.844h1.59c1.385 0 2.512-1.272 2.518-2.844v-9.867c-.006-1.073-.392-2.099-1.078-2.844zM7.198 5.949c.193-.581.681-.957 1.223-.957h15.408c.542 0 1.03.383 1.223.957l1.879 5.744h-1.404c-.331-2.564-2.434-4.335-4.692-3.952-1.801.301-3.217 1.908-3.482 3.952H5.318l1.879-5.744zm17.101 5.743h-5.728c.331-1.798 1.885-2.947 3.47-2.571 1.132.274 2.018 1.279 2.259 2.571zM7.258 25.532c-.006.82-.59 1.477-1.313 1.477h-1.59c-.723 0-1.307-.656-1.313-1.477v-1.791c.361.267.837.397 1.313.397h2.903v1.395zm21.565 0c-.006.82-.59 1.477-1.313 1.477h-1.59c-.723 0-1.307-.663-1.313-1.477v-1.395h2.903c.476 0 .952-.13 1.313-.397v1.791zm-1.314-2.763H4.354c-.717.007-1.307-.643-1.313-1.463v-5.388c0-.752.295-1.47.801-1.956l.024-.027.819-.875h22.811l.578.704c.006.014.024.021.03.034.452.486.711 1.162.711 1.867v5.641h.006c-.006.814-.596 1.47-1.313 1.463z"/><path d="M9.788 15.795H5.27c-.331 0-.602.308-.602.684v3.556c0 .376.271.684.602.684h4.518c.331 0 .602-.308.602-.684v-3.556c0-.376-.271-.684-.602-.684zm-.602 3.555H5.873v-2.188h3.313v2.188zM26.594 15.795h-4.518c-.331 0-.602.308-.602.684v3.556c0 .376.271.684.602.684h4.518c.331 0 .602-.308.602-.684v-3.556c0-.376-.271-.684-.602-.684zm-.603 3.555h-3.313v-2.188h3.313v2.188zM18.841 18.667h-5.819c-.331 0-.602.308-.602.684s.271.684.602.684h5.819c.331 0 .602-.308.602-.684s-.271-.684-.602-.684zM18.841 16.547h-5.819c-.331 0-.602.308-.602.684s.271.684.602.684h5.819c.331 0 .602-.308.602-.684s-.271-.684-.602-.684z"/></symbol><symbol id="salary-icon" viewBox="0 0 28 32"><path d="M13.459 12.908a22.434 22.434 0 0 1-.326-.119v-2.011c.361.145.615.349.625.357.261.217.647.18.862-.085s.18-.658-.082-.877c-.036-.03-.606-.5-1.406-.699v-.305c0-.344-.275-.623-.614-.623s-.614.279-.614.623v.277a2.45 2.45 0 0 0-.196.05c-.706.216-1.216.819-1.363 1.615-.143.773.105 1.544.632 1.963.241.192.534.367.927.55v2.635c-.278-.04-.487-.135-.819-.356-.284-.188-.664-.108-.85.18s-.106.674.178.862c.583.387.995.523 1.491.567v.387c0 .344.275.623.614.623s.614-.279.614-.623v-.447c1.021-.263 1.676-1.148 1.82-2.02.186-1.122-.415-2.137-1.495-2.524zm-1.554-.694a2.17 2.17 0 0 1-.169-.121c-.166-.132-.241-.441-.183-.752.019-.104.098-.414.352-.578v1.451zm1.837 3.012a1.289 1.289 0 0 1-.609.895v-2.005c.666.284.65.866.609 1.11z"/><path d="m27.391 13.311-3.9-2.613V.623A.619.619 0 0 0 22.877 0H8.14a.619.619 0 0 0-.614.623V2.99H5.193a.619.619 0 0 0-.614.623v7.084l-3.9 2.613a.626.626 0 0 0-.276.52v17.444c0 .344.275.623.614.623h10.254c.339 0 .614-.279.614-.623s-.275-.623-.614-.623H2.499l8.952-9.083 2.244 1.504a.604.604 0 0 0 .676 0l2.244-1.504 8.952 9.083h-8.772c-.339 0-.614.279-.614.623s.275.623.614.623h10.254a.619.619 0 0 0 .614-.623V13.83a.626.626 0 0 0-.276-.52zm-1.453.52-2.447 1.64v-3.279l2.447 1.64zM8.754 1.246h13.509v15.047l-1.719 1.152V3.613a.619.619 0 0 0-.614-.623H8.755V1.246zM4.579 12.191v3.279l-2.447-1.64 2.447-1.64zm-2.947 17.58V14.989l8.775 5.879-8.775 8.903zm12.403-7.965-8.228-5.513V4.236h13.509v14.032l-5.281 3.538zm12.404-6.817v14.782l-8.775-8.903 8.775-5.879z"/><path d="M14.035 30.652c-.162 0-.32.067-.434.183s-.18.277-.18.44a.619.619 0 0 0 .614.623c.161 0 .32-.067.434-.183.114-.116.18-.277.18-.44s-.066-.325-.18-.44a.614.614 0 0 0-.434-.183z"/></symbol><symbol id="add-income-icon" viewBox="0 0 31 32"><path d="M11.268 19.154a.456.456 0 0 0-.453-.459H6.426a.456.456 0 0 0-.453.459v2.969c0 .254.203.459.453.459h4.389c.25 0 .453-.206.453-.459v-2.969zm-.905 2.509H6.879v-2.05h3.484v2.05zM22.032 21.592h2.438c.25 0 .453-.206.453-.459s-.203-.459-.453-.459h-2.438c-.25 0-.453.206-.453.459s.203.459.453.459zM22.032 19.613h2.438c.25 0 .453-.206.453-.459s-.203-.459-.453-.459h-2.438c-.25 0-.453.206-.453.459s.203.459.453.459z"/><path d="M26.421 24.106a.456.456 0 0 0-.453.459v5.906c0 .088-.07.159-.157.159H5.085a.158.158 0 0 1-.157-.159V20.309c0-.254-.203-.459-.453-.459s-.453.206-.453.459v10.162c0 .594.476 1.078 1.062 1.078H25.81a1.07 1.07 0 0 0 1.062-1.078v-5.906a.456.456 0 0 0-.453-.459zM25.811 15.787h-7.472v-2.329a6.969 6.969 0 0 0 3.962-6.303c0-3.834-3.074-6.953-6.853-6.953a6.759 6.759 0 0 0-3.687 1.091 6.935 6.935 0 0 0-2.483 2.831c-.109.228-.015.503.21.614s.496.015.605-.213c1.004-2.1 3.056-3.404 5.355-3.404 3.28 0 5.948 2.707 5.948 6.035s-2.668 6.035-5.948 6.035c-3.28 0-5.948-2.707-5.948-6.035 0-.234.013-.471.04-.702.029-.252-.149-.48-.398-.509s-.473.151-.502.403a7.24 7.24 0 0 0-.046.808 6.968 6.968 0 0 0 3.962 6.303v2.329H5.084a1.07 1.07 0 0 0-1.062 1.078v1.291c0 .254.203.459.453.459s.453-.206.453-.459v-1.291c0-.088.07-.159.157-.159h5.89l4.132 4.791a.449.449 0 0 0 .682 0l4.132-4.791h5.89c.087 0 .157.072.157.159v5.545c0 .254.203.459.453.459s.453-.206.453-.459v-5.545c0-.594-.477-1.078-1.062-1.078zm-10.363 4.71-3.27-3.791h.831c.25 0 .453-.206.453-.459v-2.436c.629.194 1.295.298 1.986.298s1.357-.104 1.986-.298v2.436c0 .254.203.459.453.459h.831l-3.27 3.791z"/><path d="M6.426 27.096h1.219c.25 0 .453-.206.453-.459s-.203-.459-.453-.459H6.426c-.25 0-.453.206-.453.459s.203.459.453.459zM10.815 26.178H9.596c-.25 0-.453.206-.453.459s.203.459.453.459h1.219c.25 0 .453-.206.453-.459s-.203-.459-.453-.459zM13.985 27.096c.25 0 .453-.206.453-.459s-.203-.459-.453-.459h-1.219c-.25 0-.453.206-.453.459s.203.459.453.459h1.219zM17.155 27.096c.25 0 .453-.206.453-.459s-.203-.459-.453-.459h-1.219c-.25 0-.453.206-.453.459s.203.459.453.459h1.219zM6.426 29.57h4.877c.25 0 .453-.206.453-.459s-.203-.459-.453-.459H6.426c-.25 0-.453.206-.453.459s.203.459.453.459zM19.141 27.874c0 .935.75 1.696 1.672 1.696.48 0 .914-.207 1.219-.537.305.33.739.537 1.219.537.922 0 1.672-.761 1.672-1.696s-.75-1.696-1.672-1.696c-.48 0-.914.207-1.219.537a1.657 1.657 0 0 0-1.219-.537c-.922 0-1.672.761-1.672 1.696zm4.11-.778c.423 0 .767.349.767.778s-.344.778-.767.778-.767-.349-.767-.778c0-.429.344-.778.767-.778zm-1.672.778c0 .429-.344.778-.767.778s-.767-.349-.767-.778c0-.429.344-.778.767-.778s.767.349.767.778zM13.949 9.558c-.209-.139-.49-.079-.626.133s-.078.497.131.636c.585.388.985.503 1.501.532v.506c0 .254.203.459.453.459s.453-.206.453-.459v-.542c1.026-.202 1.625-1.06 1.758-1.861.17-1.028-.36-1.922-1.351-2.278a15.735 15.735 0 0 1-.407-.151V4.331c.345.082.551.26.569.276a.448.448 0 0 0 .636-.029.464.464 0 0 0-.026-.649 2.35 2.35 0 0 0-1.179-.532v-.452c0-.254-.203-.459-.453-.459s-.453.206-.453.459v.487a2.508 2.508 0 0 0-.21.055c-.652.199-1.14.766-1.272 1.478-.121.649.084 1.276.535 1.634.24.191.538.366.948.55v2.79c-.357-.026-.602-.113-1.006-.381zm.617-3.681c-.184-.146-.262-.43-.204-.742.052-.28.235-.617.593-.751v1.744a2.724 2.724 0 0 1-.389-.252zm1.399 1.673c.848.304.796 1.041.76 1.26-.071.428-.365.882-.865 1.06V7.512l.105.038z"/></symbol><symbol id="icon-kapusta" viewBox="0 0 125 32"><path d="m5.915 18.067 2.427-2.663 5.225 9.134h7.011l-8.292-13.685L20.578 0h-7.314L7.972 7.702 5.916 10.82V0H.001v24.538h5.915v-6.472zm25.634 4.837c.157.719.337 1.264.539 1.635h5.68v-.287c-.494-.888-.753-2.168-.775-3.843v-8.073c-.034-1.977-.725-3.534-2.073-4.668s-3.185-1.702-5.511-1.702-4.241.551-5.747 1.652c-1.494 1.101-2.241 2.534-2.241 4.298h5.68c0-1.326.674-1.989 2.022-1.989 1.449 0 2.174.837 2.174 2.511v.961h-1.753c-2.786 0-4.91.506-6.371 1.517s-2.191 2.506-2.191 4.483c0 1.573.601 2.882 1.803 3.927 1.202 1.034 2.663 1.55 4.382 1.55 1.876 0 3.337-.657 4.382-1.972zm-1.264-2.528c-.461.303-1.045.455-1.753.455-.539 0-.983-.157-1.331-.472-.348-.326-.523-.747-.523-1.264 0-1.775.989-2.663 2.966-2.663h1.652v2.916c-.202.382-.539.725-1.011 1.028zm26.797-4.82c0 2.831-.64 5.095-1.921 6.792-1.27 1.685-2.989 2.528-5.157 2.528-1.674 0-3.05-.612-4.129-1.837v8.511h-5.68V6.304h5.309l.169 1.685c1.09-1.348 2.522-2.022 4.298-2.022 2.247 0 3.994.831 5.241 2.494 1.247 1.652 1.871 3.927 1.871 6.826v.27zm-5.68-.354c0-3.236-.944-4.854-2.831-4.854-1.348 0-2.247.483-2.697 1.449v7.179c.494 1.011 1.404 1.517 2.73 1.517 1.809 0 2.741-1.562 2.798-4.685v-.607zm14.191 9.673c2.045 0 3.668-.77 4.871-2.309l.168 1.972h5.326V6.303h-5.713v12.792c-.55.933-1.477 1.399-2.781 1.399-1.517 0-2.275-.781-2.275-2.343V6.303h-5.68v11.814c0 2.18.511 3.854 1.534 5.022 1.034 1.157 2.55 1.736 4.55 1.736zm23.038-5.46c0-.483-.253-.871-.758-1.163s-1.467-.596-2.882-.91c-1.415-.315-2.584-.725-3.506-1.23-.921-.517-1.623-1.14-2.107-1.871s-.724-1.567-.724-2.511c0-1.674.691-3.05 2.073-4.129 1.16-.915 2.622-1.446 4.384-1.593V1.866h2.707v4.196c1.648.2 3.026.713 4.133 1.539 1.46 1.09 2.191 2.522 2.191 4.298h-5.696c0-1.461-.77-2.191-2.309-2.191-.595 0-1.096.168-1.5.506-.404.326-.607.736-.607 1.23 0 .506.247.916.741 1.23s1.281.573 2.36.775a20.37 20.37 0 0 1 2.865.725c2.741.944 4.112 2.635 4.112 5.073 0 1.663-.742 3.017-2.225 4.062-1.107.786-2.462 1.276-4.065 1.471v4.158h-2.707v-4.106c-1.146-.099-2.192-.365-3.137-.799-1.224-.562-2.179-1.326-2.865-2.292s-1.028-1.983-1.028-3.05h5.309c.022.843.303 1.461.842 1.854.539.382 1.23.573 2.073.573.775 0 1.354-.157 1.736-.472a1.5 1.5 0 0 0 .59-1.23zm14.764-13.112V1.769h-5.68v4.534h-2.326v3.944h2.326v9.05c0 1.876.466 3.275 1.398 4.196s2.376 1.382 4.332 1.382a10.48 10.48 0 0 0 3.202-.489v-4.062a8.374 8.374 0 0 1-1.415.101c-.731 0-1.219-.135-1.467-.404s-.37-.747-.37-1.433v-8.342h3V6.302h-3zm15.521 18.235c-.202-.371-.382-.916-.539-1.635-1.045 1.315-2.506 1.972-4.382 1.972-1.719 0-3.18-.517-4.382-1.55-1.202-1.045-1.803-2.354-1.803-3.927 0-1.977.731-3.472 2.191-4.483s3.584-1.517 6.37-1.517h1.753v-.961c0-1.674-.725-2.511-2.174-2.511-1.349 0-2.023.663-2.023 1.989h-5.68c0-1.764.748-3.197 2.242-4.298 1.505-1.101 3.421-1.652 5.746-1.652s4.163.567 5.511 1.702c1.348 1.135 2.039 2.691 2.073 4.668v8.073c.022 1.674.281 2.955.775 3.843v.287h-5.68zm-3.556-3.707c.708 0 1.292-.152 1.753-.455.472-.303.809-.646 1.011-1.028v-2.916h-1.652c-1.977 0-2.966.888-2.966 2.663 0 .517.174.938.523 1.264.348.315.792.472 1.331.472z"/></symbol><symbol id="icon-kapustina" viewBox="0 0 34 32"><path fill="#b1bcf4" d="M34.313 15.941c0 1.532-.332 3.036-.994 4.499a28.002 28.002 0 0 1-2.791 4.819 2.325 2.325 0 0 1-.151.187l1.307 1.624c.091.113.101.27.025.394-.035.056-.86 1.391-2.18 2.522-1.324 1.134-2.625 1.632-2.68 1.652a.345.345 0 0 1-.349-.064l-1.129-.998a.35.35 0 0 1-.068-.082c-.993.51-2.842 1.195-5.885 1.442-2.695.219-4.905-.122-6.568-1.013-.089-.048-.235-.118-.392-.194-.269-.131-.548-.265-.7-.359-.15-.092-.323-.191-.514-.302-1.487-.859-4.254-2.458-6.363-6.11-1.787-3.096-1.973-4.636-2.137-5.995-.097-.808-.182-1.506-.603-2.446-1.07-2.39-1.946-2.868-1.954-2.872a.348.348 0 0 1-.129-.502c.173-.25 1.082-1.5 1.96-1.514.426-.007.717.141.929.249.218.111.223.107.286.06.067-.05.103-.141.158-.286.13-.345.326-.867 1.334-.891.803-.019 1.251.404 1.577.749.34-.681 1.268-2.428 2.484-3.814.785-.895 1.703-1.597 2.335-2.029.482-.329.8-.527 1.017-.641-.239-.441-.342-.742-.422-.975-.094-.274-.146-.425-.365-.661-.731-.788-.156-2.075-.049-2.231a.369.369 0 0 1 .262-.157c.197-.022.318.09.539.294.367.339 1.131 1.045 2.428 1.383 1.162.303 2.512.24 3.703.184.752-.035 1.462-.069 2.024-.001 1.835.221 5.655.682 8.794 3.497a17.52 17.52 0 0 1 3.732 4.783c.023.03.041.064.052.1.223.431.422.865.593 1.298.589 1.485.883 2.954.883 4.398zm-.879 1.882c.48-2.561-.095-5.054-1.194-7.228-.307-.151-1.334-.587-2.887-.554-1.83.038-2.408.355-2.414.358-.162.092-.372.04-.467-.12s-.049-.365.109-.464c.068-.043.721-.417 2.758-.459a7.708 7.708 0 0 1 2.388.309 16.624 16.624 0 0 0-3.132-3.794 11.563 11.563 0 0 0-1.84-1.345c-.307.125-1.194.408-2.683.255-1.734-.179-2.68-.244-2.689-.245a.342.342 0 1 1 .047-.683c.01.001.965.067 2.713.247.764.079 1.344.031 1.743-.041-2.244-1.096-4.456-1.362-5.709-1.513-.504-.061-1.187-.029-1.909.005-1.24.058-2.646.124-3.909-.206A6.049 6.049 0 0 1 11.741.896c-.083.319-.127.77.114 1.03.319.344.408.604.511.905.097.285.219.639.601 1.256.352.569.814.583 1.539.558.479-.017 1.023-.035 1.503.244.84.489.647 1.085.52 1.478-.069.213-.129.399-.084.592.148.018.564-.109.873-.203.71-.216 1.682-.512 2.663-.352.548.09.883.254 1.055.517.201.307.117.634.049.896-.089.345-.081.412.063.511.549.379 1.051.485 1.745.632.293.062.624.132.997.232.583.156.99.455 1.211.889.336.66.243 1.61-.291 2.99a8.383 8.383 0 0 0-.561 2.905v.011c0 .298.139.567.357.863 1.899 1.979 2.97 4.158 3.068 6.305.019.415.003.852-.038 1.294.121.482.495.773.851.892.444.148 1.067.099 1.485-.481a27.379 27.379 0 0 0 2.722-4.701c.225-.498.405-.996.544-1.492-.165-.219-.97-1.232-2.357-2.166-.164.072-1.154.494-2.032.545-.438.025-1 .04-1.196-.033l.242-.642s-.008-.004-.028-.009c.008.002.202.043.943 0 .461-.027.979-.181 1.343-.311-1.808-1.042-2.453-1.195-2.459-1.197-.183-.041-.301-.223-.262-.407s.218-.302.402-.264c.075.015.787.181 2.809 1.359a11.445 11.445 0 0 1 2.793 2.282zm-6.639 13.095c.392-.174 1.342-.642 2.288-1.452s1.635-1.755 1.91-2.16l-1.033-1.283c-.361.47-.948 1.224-1.362 1.705a15.684 15.684 0 0 1-2.406 2.227.424.424 0 0 1-.068.039 3.97 3.97 0 0 1-.209.147l.88.778zm-.071-2.281c.41-.361.9-.829 1.353-1.356.277-.322.642-.781.959-1.187a2.024 2.024 0 0 1-.767-.104 2.02 2.02 0 0 1-.776-.468 23.635 23.635 0 0 1-.769 3.114zm-.995.793c.172-.469.996-2.803 1.212-4.95a2.102 2.102 0 0 1-.033-.415 9.536 9.536 0 0 0-.142-1.88c-.393-2.149-1.571-3.55-2.275-4.386a18.381 18.381 0 0 1-.415-.51 16.978 16.978 0 0 0-1.949-1.717c-2.87-2.175-4.243-2.04-4.902-1.975l-.096.009c-.171.015-.48.111-.806.212-.85.263-2.014.624-2.873.283-.793-.314-.864-1.115-.933-1.889-.049-.555-.101-1.129-.398-1.577-.637-.959-2.275-.476-3.143-.039-.343.173-.601.385-.828.573-.39.322-.793.654-1.401.502-.388-.097-.639-.366-.882-.626-.308-.329-.574-.614-1.124-.601-.545.013-.603.167-.708.447-.07.187-.158.42-.388.593-.409.307-.755.132-1.008.004-.181-.092-.352-.179-.608-.175-.321.005-.842.501-1.204.949.408.348 1.133 1.162 1.944 2.974.463 1.034.557 1.816.657 2.644.156 1.294.333 2.76 2.05 5.735 2.017 3.494 4.58 4.974 6.112 5.859.197.114.375.217.529.311.124.076.411.215.642.326.167.081.322.156.417.207 1.432.767 3.325 1.093 5.634.971-1.73-.513-4.302-1.561-6.692-3.635-4.007-3.477-6.193-10.232-6.284-10.518a.343.343 0 0 1 .654-.208c.021.065 2.009 6.205 5.522 9.689.223-.675.668-2.243.419-3.333-.102-.448-.2-.836-.286-1.178-.213-.846-.367-1.457-.395-2.176v-.014a.343.343 0 0 1 .686-.013c.024.617.158 1.174.346 1.922l.642-.668a.343.343 0 1 1 .495.475l-.942.98c.04.164.081.337.123.52.34 1.491-.389 3.592-.539 3.996l.009.008a16.928 16.928 0 0 0 3.864 2.502c-.498-.914-1.14-2.406-.666-3.355.315-.631.882-1.111 1.43-1.575.599-.507 1.165-.987 1.378-1.615a.343.343 0 1 1 .65.22c-.274.808-.94 1.372-1.584 1.918-.234.198-.462.391-.666.59.446.144 1.289.384 1.978.391.98.011 2.369-.478 2.383-.483a.343.343 0 0 1 .23.646c-.061.022-1.517.535-2.621.523-.969-.011-2.138-.404-2.447-.514a2.214 2.214 0 0 0-.118.205c-.427.856.669 2.82 1.086 3.441a.345.345 0 0 1 .038.074c1.953.774 3.402.962 3.427.965l.01.001c3.106-.473 4.496-1.418 4.787-1.64zm-2.165-13.574a9.076 9.076 0 0 1 .606-3.033c.447-1.153.554-1.971.319-2.432-.131-.257-.385-.433-.777-.538-.355-.095-.664-.16-.962-.223-.714-.151-1.33-.281-1.993-.739-.56-.386-.421-.925-.338-1.246.036-.139.077-.297.041-.351-.014-.022-.111-.136-.591-.215-.823-.135-1.671.124-2.352.331-.632.192-1.089.332-1.43.142a.63.63 0 0 1-.303-.403c-.104-.394.004-.727.09-.995.121-.375.15-.464-.213-.676-.309-.18-.709-.166-1.133-.151-.653.023-1.454.051-2.029-.711-.452.249-1.991 1.155-3.197 2.53-1.269 1.446-2.239 3.367-2.466 3.833a.46.46 0 0 0 .079.027c.25.063.399-.038.796-.366.243-.2.545-.45.956-.657 1.329-.669 3.18-.998 4.024.272.393.592.455 1.284.509 1.895.066.737.121 1.161.503 1.312.634.251 1.664-.068 2.417-.301.378-.117.705-.218.948-.24l.09-.009c.747-.074 2.3-.227 5.385 2.111.358.271.698.549 1.021.831z"/></symbol></defs></svg>